<mxfile host="app.diagrams.net" modified="2023-11-28T08:47:42.604Z" agent="Mozilla/5.0 (Windows NT 10.0; Win64; x64) AppleWebKit/537.36 (KHTML, like Gecko) Chrome/119.0.0.0 Safari/537.36" version="22.1.4" etag="Id_MlrMa2mGG-YbeX-3H" type="device">
  <diagram id="pg-dEdd0v4TN0f03vatu" name="Page-1">
    <mxGraphModel dx="3086" dy="2266" grid="1" gridSize="10" guides="1" tooltips="1" connect="1" arrows="1" fold="1" page="0" pageScale="1" pageWidth="850" pageHeight="1100" math="0" shadow="0">
      <root>
        <mxCell id="0" />
        <mxCell id="1" parent="0" />
        <mxCell id="eqZnbpFWiWV_E6lWKZLf-1" value="&lt;font style=&quot;font-size: 20px;&quot;&gt;:&lt;b&gt;&lt;u&gt;DashboardUI&lt;/u&gt;&lt;/b&gt;&lt;/font&gt;" style="shape=umlLifeline;perimeter=lifelinePerimeter;whiteSpace=wrap;html=1;container=1;dropTarget=0;collapsible=0;recursiveResize=0;outlineConnect=0;portConstraint=eastwest;newEdgeStyle={&quot;curved&quot;:0,&quot;rounded&quot;:0};fontSize=16;" vertex="1" parent="1">
          <mxGeometry x="-101" width="160" height="1340" as="geometry" />
        </mxCell>
        <mxCell id="eqZnbpFWiWV_E6lWKZLf-23" value="" style="html=1;points=[[0,0,0,0,5],[0,1,0,0,-5],[1,0,0,0,5],[1,1,0,0,-5]];perimeter=orthogonalPerimeter;outlineConnect=0;targetShapes=umlLifeline;portConstraint=eastwest;newEdgeStyle={&quot;curved&quot;:0,&quot;rounded&quot;:0};fontSize=16;" vertex="1" parent="eqZnbpFWiWV_E6lWKZLf-1">
          <mxGeometry x="75" y="290" width="10" height="120" as="geometry" />
        </mxCell>
        <mxCell id="eqZnbpFWiWV_E6lWKZLf-29" value="" style="html=1;points=[[0,0,0,0,5],[0,1,0,0,-5],[1,0,0,0,5],[1,1,0,0,-5]];perimeter=orthogonalPerimeter;outlineConnect=0;targetShapes=umlLifeline;portConstraint=eastwest;newEdgeStyle={&quot;curved&quot;:0,&quot;rounded&quot;:0};fontSize=16;" vertex="1" parent="eqZnbpFWiWV_E6lWKZLf-1">
          <mxGeometry x="75" y="440" width="10" height="110" as="geometry" />
        </mxCell>
        <mxCell id="eqZnbpFWiWV_E6lWKZLf-38" value="" style="html=1;points=[[0,0,0,0,5],[0,1,0,0,-5],[1,0,0,0,5],[1,1,0,0,-5]];perimeter=orthogonalPerimeter;outlineConnect=0;targetShapes=umlLifeline;portConstraint=eastwest;newEdgeStyle={&quot;curved&quot;:0,&quot;rounded&quot;:0};fontSize=16;" vertex="1" parent="eqZnbpFWiWV_E6lWKZLf-1">
          <mxGeometry x="75" y="720" width="10" height="60" as="geometry" />
        </mxCell>
        <mxCell id="eqZnbpFWiWV_E6lWKZLf-41" value="" style="html=1;points=[[0,0,0,0,5],[0,1,0,0,-5],[1,0,0,0,5],[1,1,0,0,-5]];perimeter=orthogonalPerimeter;outlineConnect=0;targetShapes=umlLifeline;portConstraint=eastwest;newEdgeStyle={&quot;curved&quot;:0,&quot;rounded&quot;:0};fontSize=16;" vertex="1" parent="eqZnbpFWiWV_E6lWKZLf-1">
          <mxGeometry x="75" y="800" width="10" height="80" as="geometry" />
        </mxCell>
        <mxCell id="eqZnbpFWiWV_E6lWKZLf-45" value="" style="html=1;points=[[0,0,0,0,5],[0,1,0,0,-5],[1,0,0,0,5],[1,1,0,0,-5]];perimeter=orthogonalPerimeter;outlineConnect=0;targetShapes=umlLifeline;portConstraint=eastwest;newEdgeStyle={&quot;curved&quot;:0,&quot;rounded&quot;:0};fontSize=16;" vertex="1" parent="eqZnbpFWiWV_E6lWKZLf-1">
          <mxGeometry x="75" y="910" width="10" height="50" as="geometry" />
        </mxCell>
        <mxCell id="eqZnbpFWiWV_E6lWKZLf-54" value="" style="html=1;points=[[0,0,0,0,5],[0,1,0,0,-5],[1,0,0,0,5],[1,1,0,0,-5]];perimeter=orthogonalPerimeter;outlineConnect=0;targetShapes=umlLifeline;portConstraint=eastwest;newEdgeStyle={&quot;curved&quot;:0,&quot;rounded&quot;:0};fontSize=16;" vertex="1" parent="eqZnbpFWiWV_E6lWKZLf-1">
          <mxGeometry x="75" y="1090" width="10" height="80" as="geometry" />
        </mxCell>
        <mxCell id="eqZnbpFWiWV_E6lWKZLf-61" value="" style="html=1;points=[[0,0,0,0,5],[0,1,0,0,-5],[1,0,0,0,5],[1,1,0,0,-5]];perimeter=orthogonalPerimeter;outlineConnect=0;targetShapes=umlLifeline;portConstraint=eastwest;newEdgeStyle={&quot;curved&quot;:0,&quot;rounded&quot;:0};fontSize=16;" vertex="1" parent="eqZnbpFWiWV_E6lWKZLf-1">
          <mxGeometry x="75" y="1210" width="10" height="80" as="geometry" />
        </mxCell>
        <mxCell id="eqZnbpFWiWV_E6lWKZLf-3" value="" style="shape=umlLifeline;perimeter=lifelinePerimeter;whiteSpace=wrap;html=1;container=1;dropTarget=0;collapsible=0;recursiveResize=0;outlineConnect=0;portConstraint=eastwest;newEdgeStyle={&quot;curved&quot;:0,&quot;rounded&quot;:0};participant=umlActor;fontSize=16;" vertex="1" parent="1">
          <mxGeometry x="-220" y="-20" width="20" height="1360" as="geometry" />
        </mxCell>
        <mxCell id="eqZnbpFWiWV_E6lWKZLf-4" value="&lt;font size=&quot;1&quot; style=&quot;&quot;&gt;&lt;b style=&quot;font-size: 21px;&quot;&gt;Admin&lt;/b&gt;&lt;/font&gt;" style="text;html=1;align=center;verticalAlign=middle;resizable=0;points=[];autosize=1;strokeColor=none;fillColor=none;fontSize=16;" vertex="1" parent="1">
          <mxGeometry x="-255" y="10" width="90" height="40" as="geometry" />
        </mxCell>
        <mxCell id="eqZnbpFWiWV_E6lWKZLf-7" value="&lt;font style=&quot;font-size: 20px;&quot;&gt;:&lt;b&gt;&lt;u&gt;Dashboard&lt;/u&gt;&lt;/b&gt;&lt;/font&gt;" style="shape=umlLifeline;perimeter=lifelinePerimeter;whiteSpace=wrap;html=1;container=1;dropTarget=0;collapsible=0;recursiveResize=0;outlineConnect=0;portConstraint=eastwest;newEdgeStyle={&quot;curved&quot;:0,&quot;rounded&quot;:0};fontSize=16;" vertex="1" parent="1">
          <mxGeometry x="118" width="160" height="1340" as="geometry" />
        </mxCell>
        <mxCell id="eqZnbpFWiWV_E6lWKZLf-13" value="" style="html=1;points=[[0,0,0,0,5],[0,1,0,0,-5],[1,0,0,0,5],[1,1,0,0,-5]];perimeter=orthogonalPerimeter;outlineConnect=0;targetShapes=umlLifeline;portConstraint=eastwest;newEdgeStyle={&quot;curved&quot;:0,&quot;rounded&quot;:0};fontSize=16;" vertex="1" parent="eqZnbpFWiWV_E6lWKZLf-7">
          <mxGeometry x="75" y="85" width="10" height="190" as="geometry" />
        </mxCell>
        <mxCell id="eqZnbpFWiWV_E6lWKZLf-42" value="" style="html=1;points=[[0,0,0,0,5],[0,1,0,0,-5],[1,0,0,0,5],[1,1,0,0,-5]];perimeter=orthogonalPerimeter;outlineConnect=0;targetShapes=umlLifeline;portConstraint=eastwest;newEdgeStyle={&quot;curved&quot;:0,&quot;rounded&quot;:0};fontSize=16;" vertex="1" parent="eqZnbpFWiWV_E6lWKZLf-7">
          <mxGeometry x="75" y="800" width="10" height="80" as="geometry" />
        </mxCell>
        <mxCell id="eqZnbpFWiWV_E6lWKZLf-48" value="" style="html=1;points=[[0,0,0,0,5],[0,1,0,0,-5],[1,0,0,0,5],[1,1,0,0,-5]];perimeter=orthogonalPerimeter;outlineConnect=0;targetShapes=umlLifeline;portConstraint=eastwest;newEdgeStyle={&quot;curved&quot;:0,&quot;rounded&quot;:0};fontSize=16;" vertex="1" parent="eqZnbpFWiWV_E6lWKZLf-7">
          <mxGeometry x="75" y="990" width="10" height="80" as="geometry" />
        </mxCell>
        <mxCell id="eqZnbpFWiWV_E6lWKZLf-56" value="" style="html=1;points=[[0,0,0,0,5],[0,1,0,0,-5],[1,0,0,0,5],[1,1,0,0,-5]];perimeter=orthogonalPerimeter;outlineConnect=0;targetShapes=umlLifeline;portConstraint=eastwest;newEdgeStyle={&quot;curved&quot;:0,&quot;rounded&quot;:0};fontSize=16;" vertex="1" parent="eqZnbpFWiWV_E6lWKZLf-7">
          <mxGeometry x="75" y="1090" width="10" height="210" as="geometry" />
        </mxCell>
        <mxCell id="eqZnbpFWiWV_E6lWKZLf-8" value="&lt;font style=&quot;font-size: 20px;&quot;&gt;:&lt;b&gt;&lt;u&gt;Products&lt;/u&gt;&lt;/b&gt;&lt;/font&gt;" style="shape=umlLifeline;perimeter=lifelinePerimeter;whiteSpace=wrap;html=1;container=1;dropTarget=0;collapsible=0;recursiveResize=0;outlineConnect=0;portConstraint=eastwest;newEdgeStyle={&quot;curved&quot;:0,&quot;rounded&quot;:0};fontSize=16;" vertex="1" parent="1">
          <mxGeometry x="348" width="140" height="1340" as="geometry" />
        </mxCell>
        <mxCell id="eqZnbpFWiWV_E6lWKZLf-16" value="" style="html=1;points=[[0,0,0,0,5],[0,1,0,0,-5],[1,0,0,0,5],[1,1,0,0,-5]];perimeter=orthogonalPerimeter;outlineConnect=0;targetShapes=umlLifeline;portConstraint=eastwest;newEdgeStyle={&quot;curved&quot;:0,&quot;rounded&quot;:0};fontSize=16;" vertex="1" parent="eqZnbpFWiWV_E6lWKZLf-8">
          <mxGeometry x="64" y="100" width="10" height="50" as="geometry" />
        </mxCell>
        <mxCell id="eqZnbpFWiWV_E6lWKZLf-24" value="" style="html=1;points=[[0,0,0,0,5],[0,1,0,0,-5],[1,0,0,0,5],[1,1,0,0,-5]];perimeter=orthogonalPerimeter;outlineConnect=0;targetShapes=umlLifeline;portConstraint=eastwest;newEdgeStyle={&quot;curved&quot;:0,&quot;rounded&quot;:0};fontSize=16;" vertex="1" parent="eqZnbpFWiWV_E6lWKZLf-8">
          <mxGeometry x="64" y="290" width="10" height="260" as="geometry" />
        </mxCell>
        <mxCell id="eqZnbpFWiWV_E6lWKZLf-9" value="&lt;font style=&quot;font-size: 20px;&quot;&gt;:&lt;b&gt;&lt;u&gt;Users&lt;/u&gt;&lt;/b&gt;&lt;/font&gt;" style="shape=umlLifeline;perimeter=lifelinePerimeter;whiteSpace=wrap;html=1;container=1;dropTarget=0;collapsible=0;recursiveResize=0;outlineConnect=0;portConstraint=eastwest;newEdgeStyle={&quot;curved&quot;:0,&quot;rounded&quot;:0};fontSize=16;" vertex="1" parent="1">
          <mxGeometry x="580" width="130" height="1340" as="geometry" />
        </mxCell>
        <mxCell id="eqZnbpFWiWV_E6lWKZLf-18" value="" style="html=1;points=[[0,0,0,0,5],[0,1,0,0,-5],[1,0,0,0,5],[1,1,0,0,-5]];perimeter=orthogonalPerimeter;outlineConnect=0;targetShapes=umlLifeline;portConstraint=eastwest;newEdgeStyle={&quot;curved&quot;:0,&quot;rounded&quot;:0};fontSize=16;" vertex="1" parent="eqZnbpFWiWV_E6lWKZLf-9">
          <mxGeometry x="60" y="140" width="10" height="80" as="geometry" />
        </mxCell>
        <mxCell id="eqZnbpFWiWV_E6lWKZLf-35" value="" style="html=1;points=[[0,0,0,0,5],[0,1,0,0,-5],[1,0,0,0,5],[1,1,0,0,-5]];perimeter=orthogonalPerimeter;outlineConnect=0;targetShapes=umlLifeline;portConstraint=eastwest;newEdgeStyle={&quot;curved&quot;:0,&quot;rounded&quot;:0};fontSize=16;" vertex="1" parent="eqZnbpFWiWV_E6lWKZLf-9">
          <mxGeometry x="60" y="580" width="10" height="200" as="geometry" />
        </mxCell>
        <mxCell id="eqZnbpFWiWV_E6lWKZLf-10" value="&lt;font style=&quot;font-size: 20px;&quot;&gt;:&lt;b&gt;&lt;u&gt;Orders&lt;/u&gt;&lt;/b&gt;&lt;/font&gt;" style="shape=umlLifeline;perimeter=lifelinePerimeter;whiteSpace=wrap;html=1;container=1;dropTarget=0;collapsible=0;recursiveResize=0;outlineConnect=0;portConstraint=eastwest;newEdgeStyle={&quot;curved&quot;:0,&quot;rounded&quot;:0};fontSize=16;" vertex="1" parent="1">
          <mxGeometry x="800" width="130" height="1340" as="geometry" />
        </mxCell>
        <mxCell id="eqZnbpFWiWV_E6lWKZLf-20" value="" style="html=1;points=[[0,0,0,0,5],[0,1,0,0,-5],[1,0,0,0,5],[1,1,0,0,-5]];perimeter=orthogonalPerimeter;outlineConnect=0;targetShapes=umlLifeline;portConstraint=eastwest;newEdgeStyle={&quot;curved&quot;:0,&quot;rounded&quot;:0};fontSize=16;" vertex="1" parent="eqZnbpFWiWV_E6lWKZLf-10">
          <mxGeometry x="60" y="190" width="10" height="80" as="geometry" />
        </mxCell>
        <mxCell id="eqZnbpFWiWV_E6lWKZLf-44" value="" style="html=1;points=[[0,0,0,0,5],[0,1,0,0,-5],[1,0,0,0,5],[1,1,0,0,-5]];perimeter=orthogonalPerimeter;outlineConnect=0;targetShapes=umlLifeline;portConstraint=eastwest;newEdgeStyle={&quot;curved&quot;:0,&quot;rounded&quot;:0};fontSize=16;" vertex="1" parent="eqZnbpFWiWV_E6lWKZLf-10">
          <mxGeometry x="60" y="800" width="10" height="260" as="geometry" />
        </mxCell>
        <mxCell id="eqZnbpFWiWV_E6lWKZLf-11" value="&lt;font style=&quot;font-size: 20px;&quot;&gt;ProvideDetails()&lt;/font&gt;" style="html=1;verticalAlign=bottom;endArrow=block;curved=0;rounded=0;fontSize=12;startSize=8;endSize=8;" edge="1" parent="1">
          <mxGeometry width="80" relative="1" as="geometry">
            <mxPoint x="-210" y="82" as="sourcePoint" />
            <mxPoint x="-26" y="82" as="targetPoint" />
          </mxGeometry>
        </mxCell>
        <mxCell id="eqZnbpFWiWV_E6lWKZLf-14" value="&lt;font style=&quot;font-size: 20px;&quot;&gt;Register()&lt;/font&gt;" style="html=1;verticalAlign=bottom;endArrow=block;curved=0;rounded=0;fontSize=12;startSize=8;endSize=8;" edge="1" parent="1" target="eqZnbpFWiWV_E6lWKZLf-13">
          <mxGeometry width="80" relative="1" as="geometry">
            <mxPoint x="-16" y="101" as="sourcePoint" />
            <mxPoint x="188" y="101" as="targetPoint" />
            <Array as="points">
              <mxPoint x="40" y="101" />
            </Array>
          </mxGeometry>
        </mxCell>
        <mxCell id="eqZnbpFWiWV_E6lWKZLf-15" value="&lt;font style=&quot;font-size: 20px;&quot;&gt;NavigateToProducts&lt;/font&gt;" style="html=1;verticalAlign=bottom;endArrow=block;curved=0;rounded=0;fontSize=12;startSize=8;endSize=8;" edge="1" parent="1" source="eqZnbpFWiWV_E6lWKZLf-13">
          <mxGeometry width="80" relative="1" as="geometry">
            <mxPoint x="210" y="120" as="sourcePoint" />
            <mxPoint x="410" y="119" as="targetPoint" />
          </mxGeometry>
        </mxCell>
        <mxCell id="eqZnbpFWiWV_E6lWKZLf-17" value="&lt;font style=&quot;font-size: 20px;&quot;&gt;:&lt;b&gt;&lt;u&gt;Reviews&lt;/u&gt;&lt;/b&gt;&lt;/font&gt;" style="shape=umlLifeline;perimeter=lifelinePerimeter;whiteSpace=wrap;html=1;container=1;dropTarget=0;collapsible=0;recursiveResize=0;outlineConnect=0;portConstraint=eastwest;newEdgeStyle={&quot;curved&quot;:0,&quot;rounded&quot;:0};fontSize=16;" vertex="1" parent="1">
          <mxGeometry x="1000" width="130" height="1340" as="geometry" />
        </mxCell>
        <mxCell id="eqZnbpFWiWV_E6lWKZLf-58" value="" style="html=1;points=[[0,0,0,0,5],[0,1,0,0,-5],[1,0,0,0,5],[1,1,0,0,-5]];perimeter=orthogonalPerimeter;outlineConnect=0;targetShapes=umlLifeline;portConstraint=eastwest;newEdgeStyle={&quot;curved&quot;:0,&quot;rounded&quot;:0};fontSize=16;" vertex="1" parent="eqZnbpFWiWV_E6lWKZLf-17">
          <mxGeometry x="60" y="1130" width="10" height="130" as="geometry" />
        </mxCell>
        <mxCell id="eqZnbpFWiWV_E6lWKZLf-19" value="&lt;font style=&quot;font-size: 20px;&quot;&gt;LookForAllUSers&lt;/font&gt;" style="html=1;verticalAlign=bottom;endArrow=block;curved=0;rounded=0;fontSize=12;startSize=8;endSize=8;" edge="1" parent="1" source="eqZnbpFWiWV_E6lWKZLf-13" target="eqZnbpFWiWV_E6lWKZLf-18">
          <mxGeometry width="80" relative="1" as="geometry">
            <mxPoint x="230" y="180" as="sourcePoint" />
            <mxPoint x="310" y="180" as="targetPoint" />
          </mxGeometry>
        </mxCell>
        <mxCell id="eqZnbpFWiWV_E6lWKZLf-21" value="&lt;font style=&quot;font-size: 20px;&quot;&gt;NavigateAllOrders()&lt;/font&gt;" style="html=1;verticalAlign=bottom;endArrow=block;curved=0;rounded=0;fontSize=12;startSize=8;endSize=8;entryX=0;entryY=1;entryDx=0;entryDy=-5;entryPerimeter=0;" edge="1" parent="1" source="eqZnbpFWiWV_E6lWKZLf-13">
          <mxGeometry width="80" relative="1" as="geometry">
            <mxPoint x="210" y="240" as="sourcePoint" />
            <mxPoint x="860" y="241" as="targetPoint" />
          </mxGeometry>
        </mxCell>
        <mxCell id="eqZnbpFWiWV_E6lWKZLf-22" value="&lt;font style=&quot;font-size: 20px;&quot;&gt;ManageProducts()&lt;/font&gt;" style="html=1;verticalAlign=bottom;endArrow=block;curved=0;rounded=0;fontSize=12;startSize=8;endSize=8;" edge="1" parent="1" target="eqZnbpFWiWV_E6lWKZLf-23">
          <mxGeometry x="-0.0022" width="80" relative="1" as="geometry">
            <mxPoint x="-211.03846153846143" y="309" as="sourcePoint" />
            <mxPoint x="-40" y="309" as="targetPoint" />
            <mxPoint as="offset" />
          </mxGeometry>
        </mxCell>
        <mxCell id="eqZnbpFWiWV_E6lWKZLf-25" value="&lt;font style=&quot;font-size: 20px;&quot;&gt;AddProduct()&lt;/font&gt;" style="html=1;verticalAlign=bottom;endArrow=block;curved=0;rounded=0;fontSize=12;startSize=8;endSize=8;" edge="1" parent="1" source="eqZnbpFWiWV_E6lWKZLf-23">
          <mxGeometry width="80" relative="1" as="geometry">
            <mxPoint x="-10" y="329" as="sourcePoint" />
            <mxPoint x="410" y="329" as="targetPoint" />
          </mxGeometry>
        </mxCell>
        <mxCell id="eqZnbpFWiWV_E6lWKZLf-27" value="&lt;font style=&quot;font-size: 20px;&quot;&gt;UpdateProducts()&lt;/font&gt;" style="html=1;verticalAlign=bottom;endArrow=block;curved=0;rounded=0;fontSize=12;startSize=8;endSize=8;" edge="1" parent="1" source="eqZnbpFWiWV_E6lWKZLf-23">
          <mxGeometry width="80" relative="1" as="geometry">
            <mxPoint x="-10" y="365" as="sourcePoint" />
            <mxPoint x="410" y="365" as="targetPoint" />
          </mxGeometry>
        </mxCell>
        <mxCell id="eqZnbpFWiWV_E6lWKZLf-28" value="&lt;font style=&quot;font-size: 20px;&quot;&gt;DeleteProducts()&lt;/font&gt;" style="html=1;verticalAlign=bottom;endArrow=block;curved=0;rounded=0;fontSize=12;startSize=8;endSize=8;" edge="1" parent="1" source="eqZnbpFWiWV_E6lWKZLf-23">
          <mxGeometry width="80" relative="1" as="geometry">
            <mxPoint x="-30" y="400" as="sourcePoint" />
            <mxPoint x="410" y="400" as="targetPoint" />
          </mxGeometry>
        </mxCell>
        <mxCell id="eqZnbpFWiWV_E6lWKZLf-30" value="&lt;font style=&quot;font-size: 20px;&quot;&gt;ProductAdded()&lt;/font&gt;" style="html=1;verticalAlign=bottom;endArrow=open;dashed=1;endSize=8;curved=0;rounded=0;fontSize=12;" edge="1" parent="1" target="eqZnbpFWiWV_E6lWKZLf-29">
          <mxGeometry relative="1" as="geometry">
            <mxPoint x="410" y="460" as="sourcePoint" />
            <mxPoint x="330" y="460" as="targetPoint" />
          </mxGeometry>
        </mxCell>
        <mxCell id="eqZnbpFWiWV_E6lWKZLf-31" value="&lt;font style=&quot;font-size: 20px;&quot;&gt;ProductUpdated()&lt;/font&gt;" style="html=1;verticalAlign=bottom;endArrow=open;dashed=1;endSize=8;curved=0;rounded=0;fontSize=12;" edge="1" parent="1" target="eqZnbpFWiWV_E6lWKZLf-29">
          <mxGeometry relative="1" as="geometry">
            <mxPoint x="409" y="500" as="sourcePoint" />
            <mxPoint x="-10" y="500" as="targetPoint" />
          </mxGeometry>
        </mxCell>
        <mxCell id="eqZnbpFWiWV_E6lWKZLf-32" value="&lt;font style=&quot;font-size: 20px;&quot;&gt;ProductDeleted()&lt;/font&gt;" style="html=1;verticalAlign=bottom;endArrow=open;dashed=1;endSize=8;curved=0;rounded=0;fontSize=12;" edge="1" parent="1" target="eqZnbpFWiWV_E6lWKZLf-29">
          <mxGeometry relative="1" as="geometry">
            <mxPoint x="409" y="540" as="sourcePoint" />
            <mxPoint x="-10" y="540" as="targetPoint" />
          </mxGeometry>
        </mxCell>
        <mxCell id="eqZnbpFWiWV_E6lWKZLf-34" value="&lt;font style=&quot;font-size: 20px;&quot;&gt;Manageusers()&lt;/font&gt;" style="html=1;verticalAlign=bottom;endArrow=block;curved=0;rounded=0;fontSize=12;startSize=8;endSize=8;" edge="1" parent="1" target="eqZnbpFWiWV_E6lWKZLf-33">
          <mxGeometry width="80" relative="1" as="geometry">
            <mxPoint x="-210" y="610" as="sourcePoint" />
            <mxPoint x="-130" y="610" as="targetPoint" />
          </mxGeometry>
        </mxCell>
        <mxCell id="eqZnbpFWiWV_E6lWKZLf-36" value="&lt;font style=&quot;font-size: 20px;&quot;&gt;NavigateAllUsers()&lt;/font&gt;" style="html=1;verticalAlign=bottom;endArrow=block;curved=0;rounded=0;fontSize=12;startSize=8;endSize=8;" edge="1" parent="1" source="eqZnbpFWiWV_E6lWKZLf-33">
          <mxGeometry width="80" relative="1" as="geometry">
            <mxPoint x="-30" y="638" as="sourcePoint" />
            <mxPoint x="640" y="638" as="targetPoint" />
          </mxGeometry>
        </mxCell>
        <mxCell id="eqZnbpFWiWV_E6lWKZLf-37" value="&lt;font style=&quot;font-size: 20px;&quot;&gt;DeleteUserAccount()&lt;/font&gt;" style="html=1;verticalAlign=bottom;endArrow=block;curved=0;rounded=0;fontSize=12;startSize=8;endSize=8;" edge="1" parent="1" source="eqZnbpFWiWV_E6lWKZLf-33">
          <mxGeometry width="80" relative="1" as="geometry">
            <mxPoint x="-30" y="680" as="sourcePoint" />
            <mxPoint x="640" y="680" as="targetPoint" />
          </mxGeometry>
        </mxCell>
        <mxCell id="eqZnbpFWiWV_E6lWKZLf-39" value="&lt;font style=&quot;font-size: 20px;&quot;&gt;UserAccountDeleted()&lt;/font&gt;" style="html=1;verticalAlign=bottom;endArrow=open;dashed=1;endSize=8;curved=0;rounded=0;fontSize=12;" edge="1" parent="1" target="eqZnbpFWiWV_E6lWKZLf-38">
          <mxGeometry relative="1" as="geometry">
            <mxPoint x="640" y="747" as="sourcePoint" />
            <mxPoint y="747" as="targetPoint" />
          </mxGeometry>
        </mxCell>
        <mxCell id="eqZnbpFWiWV_E6lWKZLf-40" value="&lt;font style=&quot;font-size: 20px;&quot;&gt;ManageOrders()&lt;/font&gt;" style="html=1;verticalAlign=bottom;endArrow=block;curved=0;rounded=0;fontSize=12;startSize=8;endSize=8;" edge="1" parent="1" target="eqZnbpFWiWV_E6lWKZLf-41">
          <mxGeometry width="80" relative="1" as="geometry">
            <mxPoint x="-210" y="820" as="sourcePoint" />
            <mxPoint x="-40" y="820" as="targetPoint" />
          </mxGeometry>
        </mxCell>
        <mxCell id="eqZnbpFWiWV_E6lWKZLf-43" value="&lt;font style=&quot;font-size: 20px;&quot;&gt;NavigateOrder()&lt;/font&gt;" style="html=1;verticalAlign=bottom;endArrow=block;curved=0;rounded=0;fontSize=12;startSize=8;endSize=8;" edge="1" parent="1" source="eqZnbpFWiWV_E6lWKZLf-41">
          <mxGeometry width="80" relative="1" as="geometry">
            <mxPoint x="-10" y="860" as="sourcePoint" />
            <mxPoint x="190" y="840" as="targetPoint" />
          </mxGeometry>
        </mxCell>
        <mxCell id="eqZnbpFWiWV_E6lWKZLf-46" value="&lt;font style=&quot;font-size: 20px;&quot;&gt;OpenOrderList()&lt;/font&gt;" style="html=1;verticalAlign=bottom;endArrow=block;curved=0;rounded=0;fontSize=12;startSize=8;endSize=8;" edge="1" parent="1" target="eqZnbpFWiWV_E6lWKZLf-44">
          <mxGeometry width="80" relative="1" as="geometry">
            <mxPoint x="200" y="860" as="sourcePoint" />
            <mxPoint x="270" y="860" as="targetPoint" />
          </mxGeometry>
        </mxCell>
        <mxCell id="eqZnbpFWiWV_E6lWKZLf-47" value="&lt;font style=&quot;font-size: 20px;&quot;&gt;DisplayOrderList()&lt;/font&gt;" style="html=1;verticalAlign=bottom;endArrow=open;dashed=1;endSize=8;curved=0;rounded=0;fontSize=12;" edge="1" parent="1" target="eqZnbpFWiWV_E6lWKZLf-45">
          <mxGeometry relative="1" as="geometry">
            <mxPoint x="860" y="929" as="sourcePoint" />
            <mxPoint y="929" as="targetPoint" />
          </mxGeometry>
        </mxCell>
        <mxCell id="eqZnbpFWiWV_E6lWKZLf-49" value="&lt;font style=&quot;font-size: 20px;&quot;&gt;ChangeOrderStatus()&lt;/font&gt;" style="html=1;verticalAlign=bottom;endArrow=block;curved=0;rounded=0;fontSize=12;startSize=8;endSize=8;" edge="1" parent="1">
          <mxGeometry width="80" relative="1" as="geometry">
            <mxPoint x="-211.31818181818176" y="1006" as="sourcePoint" />
            <mxPoint x="190" y="1006" as="targetPoint" />
          </mxGeometry>
        </mxCell>
        <mxCell id="eqZnbpFWiWV_E6lWKZLf-50" value="&lt;span style=&quot;font-size: 20px;&quot;&gt;StoreOrderStatus()&lt;/span&gt;" style="html=1;verticalAlign=bottom;endArrow=block;curved=0;rounded=0;fontSize=12;startSize=8;endSize=8;" edge="1" parent="1" source="eqZnbpFWiWV_E6lWKZLf-48">
          <mxGeometry width="80" relative="1" as="geometry">
            <mxPoint x="270" y="1050" as="sourcePoint" />
            <mxPoint x="860" y="1030" as="targetPoint" />
          </mxGeometry>
        </mxCell>
        <mxCell id="eqZnbpFWiWV_E6lWKZLf-12" value="" style="html=1;points=[[0,0,0,0,5],[0,1,0,0,-5],[1,0,0,0,5],[1,1,0,0,-5]];perimeter=orthogonalPerimeter;outlineConnect=0;targetShapes=umlLifeline;portConstraint=eastwest;newEdgeStyle={&quot;curved&quot;:0,&quot;rounded&quot;:0};fontSize=16;" vertex="1" parent="1">
          <mxGeometry x="-26" y="60" width="10" height="80" as="geometry" />
        </mxCell>
        <mxCell id="eqZnbpFWiWV_E6lWKZLf-33" value="" style="html=1;points=[[0,0,0,0,5],[0,1,0,0,-5],[1,0,0,0,5],[1,1,0,0,-5]];perimeter=orthogonalPerimeter;outlineConnect=0;targetShapes=umlLifeline;portConstraint=eastwest;newEdgeStyle={&quot;curved&quot;:0,&quot;rounded&quot;:0};fontSize=16;" vertex="1" parent="1">
          <mxGeometry x="-26" y="590" width="10" height="110" as="geometry" />
        </mxCell>
        <mxCell id="eqZnbpFWiWV_E6lWKZLf-55" value="&lt;font style=&quot;font-size: 20px;&quot;&gt;CheckReview()&lt;/font&gt;" style="html=1;verticalAlign=bottom;endArrow=block;curved=0;rounded=0;fontSize=12;startSize=8;endSize=8;" edge="1" parent="1">
          <mxGeometry width="80" relative="1" as="geometry">
            <mxPoint x="-210" y="1125" as="sourcePoint" />
            <mxPoint x="-26" y="1125" as="targetPoint" />
          </mxGeometry>
        </mxCell>
        <mxCell id="eqZnbpFWiWV_E6lWKZLf-57" value="&lt;span style=&quot;font-size: 20px;&quot;&gt;provideProductInfo()&lt;/span&gt;" style="html=1;verticalAlign=bottom;endArrow=block;curved=0;rounded=0;fontSize=12;startSize=8;endSize=8;" edge="1" parent="1">
          <mxGeometry width="80" relative="1" as="geometry">
            <mxPoint x="-16" y="1149" as="sourcePoint" />
            <mxPoint x="193" y="1149" as="targetPoint" />
          </mxGeometry>
        </mxCell>
        <mxCell id="eqZnbpFWiWV_E6lWKZLf-59" value="&lt;font style=&quot;font-size: 20px;&quot;&gt;CheckProductInfo()&lt;/font&gt;" style="html=1;verticalAlign=bottom;endArrow=block;curved=0;rounded=0;fontSize=12;startSize=8;endSize=8;" edge="1" parent="1">
          <mxGeometry width="80" relative="1" as="geometry">
            <mxPoint x="203" y="1174" as="sourcePoint" />
            <mxPoint x="1060" y="1174" as="targetPoint" />
          </mxGeometry>
        </mxCell>
        <mxCell id="eqZnbpFWiWV_E6lWKZLf-60" value="&lt;font style=&quot;font-size: 20px;&quot;&gt;SendProductReview()&lt;/font&gt;" style="html=1;verticalAlign=bottom;endArrow=open;dashed=1;endSize=8;curved=0;rounded=0;fontSize=12;" edge="1" parent="1">
          <mxGeometry relative="1" as="geometry">
            <mxPoint x="1060" y="1236" as="sourcePoint" />
            <mxPoint x="203" y="1236" as="targetPoint" />
          </mxGeometry>
        </mxCell>
        <mxCell id="eqZnbpFWiWV_E6lWKZLf-62" value="&lt;font style=&quot;font-size: 20px;&quot;&gt;DisplayReview()&lt;/font&gt;" style="html=1;verticalAlign=bottom;endArrow=open;dashed=1;endSize=8;curved=0;rounded=0;fontSize=12;" edge="1" parent="1">
          <mxGeometry relative="1" as="geometry">
            <mxPoint x="190" y="1272" as="sourcePoint" />
            <mxPoint x="-16" y="1272" as="targetPoint" />
          </mxGeometry>
        </mxCell>
        <mxCell id="eqZnbpFWiWV_E6lWKZLf-63" value="loop" style="shape=umlFrame;whiteSpace=wrap;html=1;pointerEvents=0;fontSize=16;" vertex="1" parent="1">
          <mxGeometry x="-290" y="1077" width="1410" height="263" as="geometry" />
        </mxCell>
      </root>
    </mxGraphModel>
  </diagram>
</mxfile>
